<?xml version="1.0" encoding="UTF-8"?>
<svg version="1.1" viewBox="0 0 2048 2048" width="5000" height="5000" xmlns="http://www.w3.org/2000/svg">
<path transform="translate(452,866)" d="m0 0h25l21 3 18 5 18 8 11 6 11 7 13 11 2 1v2l4 2 12 13 6 8 7 11 5 8 6 12 4 14 3 8 4 24v31l-3 19-6 20-5 12-8 15-7 10-9 11-9 10-12 11-14 10-12 7-13 6-14 5-22 5-12 1h-20l-13-1-17-3-11-3-14-5-15-8-18-12-11-10-8-7-8-9-8-11-10-16-8-18-5-15-3-18v-44l4-20 6-17 9-19 11-16 5-7h2l2-4 7-8 11-9 7-6 11-7 10-6 13-6 21-7 14-3zm-11 11-26 6-13 6-14 7-13 9-10 8-15 15-10 14-9 15-8 19-5 18-2 17v22l3 25 6 19 7 17 4 6 3-2 2-4 5-5 4-7v-2l5-2 12-1 20-9 25-10 8-3 2-13 5-3 1-2v-11l-3-11-7-12-4-12-7-8-1-6v-10l3-5 11-8 7-13 6-5 9-4 15-4 11-7h15l12 5 6 5 4 10v7l-1 5v30l-1 20-1 9 2 2 5 1-2 5-8 3-1 2v15l-4 5-4 4 4 2 2 8 10 5 5 3 14 5 21 6h9l2 5h9l5 1 1 12 9 7 4 5 4-2 6-10 8-17 5-15 3-16 1-22-1-23-3-18-6-17-8-16-8-13-10-13-16-16-18-13-16-8-14-5-8-3-22-4zm18 94-1 3h8l1-2-2-1zm-31 88m-19 7-19 8-11 4-7 4 2 6 5 8 7 18 3 11 8 1 10 19 11 19 9 4 4 2h3l-3-24-3-12-2-2-1 4-2-1-2-7v-10l-1-5-2-29-3-16-1-2zm20 8-3 2 1 6 6 1 3-4-1-5zm66 2v5l6-2v-3zm14 10-1 1 1 7 1 2h2l-1-10zm3 0 3 8h2v3l-4 1-2 3 3 12 1 2 1 15 1 6-1 9-7 2h-22l-5 4-9 4-6 2 2 9 9 2h14l14-2 3-2 1-4 7-4 2 6 13-5 5-4 2-5v-17l-5-23-5-11-5-9-9-2zm-80 1 1 4h2l-1-4zm35 3v2h4v-2zm-27 1 4 5 2-1-4-4zm-81 17-3 7-2 1v6l9 10 6 5h3l1-11-4-15-3-2zm-7 1 1 3zm202 0-1 1v8l2 3v-12zm-181 3 1 4zm193 4-2 4-1 9h3l2-8v-5zm-59 1-6 3-1 1v10l1 1 7-1 3-2-1-10zm-133 2m65 1-4 1-1 6 2 5 6 1 4-3v-6l-4-4zm-63 5v13l5 8 1-3-5-18zm10 1-1 3 1 2h2l-1-5zm1 8-1 3 1 7 2-1-1-9z" fill="#F8F8F8"/>
<path transform="translate(452,866)" d="m0 0h25l21 3 18 5 18 8 11 6 11 7 13 11 2 1v2l4 2 12 13 6 8 7 11 5 8 6 12 4 14 3 8 4 24v31l-3 19-6 20-5 12-8 15-7 10-9 11-9 10-12 11-14 10-12 7-13 6-14 5-22 5-12 1h-20l-13-1-17-3-11-3-14-5-15-8-18-12-11-10-8-7-8-9-8-11-10-16-8-18-5-15-3-18v-44l4-20 6-17 9-19 11-16 5-7h2l2-4 7-8 11-9 7-6 11-7 10-6 13-6 21-7 14-3zm-11 11-26 6-13 6-14 7-13 9-10 8-15 15-10 14-9 15-8 19-5 18-2 17v22l3 25 6 19 7 17 4 6 3-2 2-4 5-5 4-7v-2l5-2 12-1 20-9 25-10 8-3 2-13 5-3 1-2v-11l-3-11-7-12 6 9 3 7 1 6v14l-2 5 4 5 17 13 4 4 2 9-15-5-10-5-5-2-3-2-7 1-39 16-9 4 1 6 7 19 5 21-2-3v13l5 8h2l1 4h1v-13l-3-24-4-17v-2l8 20 3 11 8 1 10 19 11 19 9 4 4 2 6 1 1-2-1-9 2 11 10 2h31l18-3 17-5 2-1 1-3 2 1 13-6 5-5v-3h2v-25l-4-16-8-16-1-3 7 6 8 12 3 8h1l1-14 3 25 2 8h1v-33l1-6v-11l-8-3-16-4-15-5-10-3-3-4h-5l-2 5-4 1-10 4-5 1 2-9 8-8 7-4 1 7 2-2 10 5 5 3 14 5 21 6h9l2 5h9l5 1 1 12 9 7 4 5 4-2 6-10 8-17 5-15 3-16 1-22-1-23-3-18-6-17-8-16-8-13-10-13-16-16-18-13-16-8-14-5-8-3-22-4zm-13 182m-69 49-3 7-2 1v6l9 10 6 5h3l1-11-4-15-3-2zm-7 1 1 3zm202 0-1 1v8l2 3v-12zm-181 3 1 4zm193 4-2 4-1 9h3l2-8v-5zm-192 3m12 7-1 3 1 2h2l-1-5zm1 8-1 3 1 7 2-1-1-9z" fill="#E7E7E7"/>
<path transform="translate(416,1061)" d="m0 0 6 1 11 7 14 6 10 2h15l16-4 7-4 2-5h5l3 4 10 3 15 5 16 4 8 3v11l-1 6v33l-2-3-3-19-1-11-1 14-2-3-5-10-8-10-5-4 8 15 5 16 1 5v25h-1l-1-17-5-23-5-11-4-7v-2l-11-1 2 6 2 1v3l-5 3 2 10 2 5 1 15 1 6-1 9-8 3h-24l-1 3-11 5-5 1 2 8 8 2h14l14-2 2-1 2-5 5-3h2v8l-15 5-14 3-8 1h-31l-10-2-3-15 2 14h-3v-3h-2l-4-27-2-6-4 2-3-8v-10l-1-5-2-29-3-18-13 4-11 5-11 4-6 3 2 6 3 8 4 17 3 24v13l-2-1-4-13-2-14-7-24-5-12v-4l28-12zm13 13-3 2 1 6 6 1 3-4-1-5zm66 2v5l6-2v-3zm14 10-1 1 1 7 1 2h2l-1-10zm-77 1 1 4h2l-1-4zm35 3v2h4v-2zm-27 1 4 5 2-1-4-4zm67 26-6 3-1 1v10l1 1 7-1 3-2-1-10zm-68 3-4 1-1 6 2 5 6 1 4-3v-6l-4-4z" fill="#181818"/>
<path transform="translate(1277,947)" d="m0 0h26l1 1v36l-1 35-1 4 1 16v29l-2 7 2 5-1 6-5 1v-4l-3-1-2-2-6 2 1 4 1 2-1 5h5l5 3 6 2v2l-23 1-3-1-1-51v-101zm19 77-2 2-1 10 2 5 3-1v-16zm-4 42-4 3h2l-1 6 1 1h8l1-4-3-5zm-9 24-1 3h2z" fill="#FEFEFE"/>
<path transform="translate(475,951)" d="m0 0h14l8 4 5 8 2 14-6-2-11-1 2 10 1 2 8-1-2-2-7-1 1-3 7-1 5 2 1 5v14l-2 12-5-5-6-4 2-4-1 1h-6l-4-1-5 1 1-4-2 1-2 6-5 3-9 7-5 1-3-1 2 3 3 1h8l13-4h10l8 4 2 2-1 15-4 1-4-10 1-7-9-1v7l2 4v6l-4 1-7 1-11-6-10-8-4-4-2-8v-8l-4-8v-9l2-6 2-2v-9l5-8-4-2zm-16 20-1 3h8l1-2-2-1z" fill="#181818"/>
<path transform="translate(1687,946)" d="m0 0h26l12 6 6 7 5 10 2 6 1 12-2 2-16 2h-6l-1-1-2-13-2-7-5-2-1-1h-9l-9 4h-10l-2 5h-2l-2 7-1 16 6 11 15 14-1 2-5-3-11-9-7-9-4-10v-24l3-9 6-8 10-6zm-22 39 1 4 2-1-1-3z" fill="#FBFBFB"/>
<path transform="translate(1564,947)" d="m0 0h51l21 1 3 2 1 10v7l-1 1h-28l-2-5v-7h-3l-3 9-2 2v9l-3 7v11l-1 9 3 10-1 8-1 2v8l1 4 1 14 1 7-4 6-3-1-1 10 5 3-1 5-3 3-1 13 13 2v3l-7 1h-9l-1-1v-135l4-1-6-7-4-1v-2l-11 1 5 9 2 1v2l-5 1h-10zm62 2-9 1-4 4 1 5 3 5 13-1h6l-2-1 1-4 3-2-2-4v-3z" fill="#FEFEFE"/>
<path transform="translate(1682,1051)" d="m0 0 3 1 2 16 4 8 3 3 9 2 3 10-4 4v2l8 1 16-5-1 4-9 4-2 1h-23l-12-4-10-9-4-7-4-13-1-13 5-2z" fill="#FDFDFD"/>
<path transform="translate(487,974)" d="m0 0h11l6 3 1-2-1 28-1 9 7 3-2 5-3 2-5 1-2 2-2-7-6-4-3-1h-10l-13 4h-8l-5-3v-2l8-1 9-7 5-3 2-6h3l-2 4 7-2 2 1h6l2-2-1 6 5 4 3 4 2-11v-18l-7-2-5 1-1 2h7l3 2-1 2h-8l-1 2-2-7z" fill="#EFEFEF"/>
<path transform="translate(560,1086)" d="m0 0h7l1 1-1 8-1 4 5 1 4 6v11l-1 6 7-14 3 2-1 4-11 13-3 3h-2v-10l1-5-2 1-2 9-1 10-3 3h-2l-2-15v-28l2-9z" fill="#171717"/>
<path transform="translate(471,928)" d="m0 0 10 1 8 4 6 7 1 7-4-5-4-2h-11l-12 5-8 3h-7v-5l10-11-7 4-6 4-6 7-2 1h-7l-1-5 8-7 10-4 14-3z" fill="#151515"/>
<path transform="translate(357,1084)" d="m0 0 5 1 4 6 5 15 4 25v12l-6-4-2-3 5 1v-11l-3-12v-3l-10-2-2 6-3 1-1-8-3-11 2-9z" fill="#151515"/>
<path transform="translate(379,1076)" d="m0 0m-3 1h3v2l-6 3 2 6 3 8 4 17 3 24v13l-2-1-4-13-2-14-7-24-5-12v-4z" fill="#1A1A1A"/>
<path transform="translate(1698,1017)" d="m0 0 9 4 2 2 5 2 3 6 6 3 2 4 3 2v2h-2l2 5-1 4 1 4-2 4h-2l-1-4h-4l-1 2-1-4h-4l-5-8 1-3 4 2h6l-4-8-5-5v-2l-5-2-5-5v-2l-3-1z" fill="#FEFEFE"/>
<path transform="translate(417 1e3)" d="m0 0 4 5 7 14 1 6v14l-2 5 5 5 11 9 8 7 2 4v6l-7-1-14-6-10-7 2-1 12 6-4-5-2-3 1-4 4 1-11-10 1-4 2-4v-11l-3-11-7-12z" fill="#171717"/>
<path transform="translate(1231,1081)" d="m0 0h12l8 1v18l-3 1-8-2-2-2 1-9-20-3-4-2v-1z" fill="#FEFEFE"/>
<path transform="translate(490,1054)" d="m0 0h3l1 5v10l-10 5-8 1v-7l7-8z" fill="#151515"/>
<path transform="translate(376,1091)" d="m0 0 3 3 8 20 2 11h5v30h-1l-4-24-3-4h-3l-4-24z" fill="#E4E4E4"/>
<path transform="translate(418,1076)" d="m0 0 2 4 9 49 1 11-4-6-1 2h-2l-3-36-2-17z" fill="#FEFEFE"/>
<path transform="translate(457,971)" d="m0 0 2 1-1 2 8-1-1-2 12 1 2 1-1 10-4 5-2-1v-5l-4 1h-11l1-3 2-1 13-1-7-2h-11z" fill="#FEFEFE"/>
<path transform="translate(496,1073)" d="m0 0 6 1 1 6-3 3-6-1-1-3-16 5-6 1h-16l-9-5 3-1 7 2h15l18-3 3-1zm-1 3v5l6-2v-3z" fill="#FEFEFE"/>
<path transform="translate(487,974)" d="m0 0h11l6 3 1-2-1 28-2 6-1-3 1-7v-18l-7-2-5 1-1 2h7l3 2-1 2h-8l-1 2-2-7z" fill="#FEFEFE"/>
<path transform="translate(450,875)" d="m0 0h30l18 3 17 5 16 7-3 1-13-5-11-4-22-4-39-1v-1z" fill="#151515"/>
<path transform="translate(876,948)" d="m0 0h7l1 4h2v3l-2 1-4 8-5 3-2-1 1-9 1-1z" fill="#FEFEFE"/>
<path transform="translate(425,952)" d="m0 0 2 1-6 16-4 4-3-1v-6l-3 8h-1v-7l7-8z" fill="#171717"/>
<path transform="translate(608,985)" d="m0 0 2 4 3 16 1 11v16l-2 17-2 10h-1l1-11 1-22-1-23-2-13z" fill="#151515"/>
<path transform="translate(346,1104)" d="m0 0 5 4 1 8h2l2 7 7 8 3 4-4-2-9-9-10-13 1-6z" fill="#151515"/>
<path transform="translate(423,993)" d="m0 0 3 1-1 4 3 5 1 5 4 1-1 5-4 1-4-5-4-7 1-3v-4z" fill="#161616"/>
<path transform="translate(1513,948)" d="m0 0h7l-3 1 2 8-3 2-1 7 1 6v8l-2 1-1-2z" fill="#FEFEFE"/>
<path transform="translate(417,1083)" d="m0 0h2l4 37v15l-2-3-1-4v-10l-1-5z" fill="#151515"/>
<path transform="translate(474,924)" d="m0 0h7l11 4 8 7 3 7-1 4-6-10-7-6-10-4-5-1z" fill="#151515"/>
<path transform="translate(1734,1053)" d="m0 0 5 1v7l-2 5-4-2v-5l-4-3v-2z" fill="#FEFEFE"/>
<path transform="translate(372,1112)" d="m0 0 4 2 3 13v5l-2-4-1 10h-1l-3-21z" fill="#FEFEFE"/>
<path transform="translate(389,1125)" d="m0 0h5v30h-1l-4-24z" fill="#151515"/>
<path transform="translate(1733,1069)" d="m0 0h5l1 1v7l-2 5-4 1v-10z" fill="#FEFEFE"/>
<path transform="translate(515,1156)" d="m0 0h2v8l-8 3-3-1 2-2 2-5z" fill="#151515"/>
<path transform="translate(1718,1060)" d="m0 0h1v10l-2 5-3 3-2-1 2-6 1-7h2z" fill="#FEFEFE"/>
<path transform="translate(401,1067)" d="m0 0m-3 1h3v2l-11 5-11 3 2-3z" fill="#151515"/>
<path transform="translate(511,1087)" d="m0 0h2l2 6 2 1v3l-6 3z" fill="#151515"/>
<path transform="translate(581,1109)" d="m0 0 3 2-1 4-6 7-2-1z" fill="#151515"/>
<path transform="translate(423,986)" d="m0 0 5 1 2 2v6l-6-5-3-1v-2z" fill="#151515"/>
<path transform="translate(1692,1027)" d="m0 0 4 1 5 5 3 4-5-2-7-6z" fill="#FEFEFE"/>
<path transform="translate(420,956)" d="m0 0m-1 1m-1 1m-1 1m-1 1m-1 1m-1 1 1 2-4 10h-1v-7z" fill="#151515"/>
<path transform="translate(1732,1042)" d="m0 0 2 1 1 3 2 1-1 3-6-2z" fill="#FEFEFE"/>
<path transform="translate(1614,1096)" d="m0 0 2 1v3l-7-1 3-2z" fill="#FEFEFE"/>
<path transform="translate(1692,1012)" d="m0 0 5 1-1 2h-5l-1-2z" fill="#FEFEFE"/>
<path transform="translate(1603,1054)" d="m0 0h2l1 6h-2z" fill="#FEFEFE"/>
<path transform="translate(1700,1010)" d="m0 0 6 3-1 2z" fill="#FEFEFE"/>
<path transform="translate(1612,1054)" d="m0 0h1v7h-1z" fill="#FEFEFE"/>
<path transform="translate(896,961)" d="m0 0 1 2-4 1z" fill="#FEFEFE"/>
<path transform="translate(1732,1085)" d="m0 0" fill="#FEFEFE"/>
<path transform="translate(1711,1078)" d="m0 0" fill="#FEFEFE"/>
<path transform="translate(1707,1041)" d="m0 0" fill="#FEFEFE"/>
<path transform="translate(1706,1040)" d="m0 0" fill="#FEFEFE"/>
<path transform="translate(1710,1019)" d="m0 0" fill="#FEFEFE"/>
<path transform="translate(1633,952)" d="m0 0" fill="#FEFEFE"/>
</svg>
